<svg width="50" height="10" viewBox="0 0 50 10" fill="none" xmlns="http://www.w3.org/2000/svg">
<g clip-path="url(#clip0_726_629)">
<path d="M150.462 11.0954C150.462 8.10592 150.462 5.12128 150.462 2.14142C150.462 0.704195 150.884 0.301773 152.506 0.301773H172.237C173.974 0.279395 175.653 0.858612 176.916 1.91612C178.178 2.97362 178.925 4.42588 178.997 5.96374C179.069 7.5016 178.46 9.00358 177.301 10.1499C176.141 11.2963 174.522 11.9965 172.788 12.1014C171.75 12.1014 170.695 12.2308 169.641 12.2164C169.327 12.2133 169.017 12.2723 168.732 12.3889C167.921 12.7051 167.775 13.0787 168.261 13.7399C168.649 14.2022 169.114 14.6093 169.641 14.9471L177.299 20.5523C177.482 20.651 177.628 20.7945 177.72 20.9655C177.812 21.1364 177.847 21.3275 177.818 21.5153C177.721 21.9321 177.267 21.9752 176.942 21.9752C175.192 22.0919 173.435 22.0919 171.685 21.9752C170.897 21.8675 170.16 21.5634 169.559 21.0985C166.006 18.4827 162.485 15.8526 158.932 13.2368C158.568 12.9756 158.272 12.6476 158.065 12.2754C157.857 11.9033 157.743 11.4958 157.731 11.081C157.692 10.4778 157.692 9.87322 157.731 9.27008C157.731 8.27839 158.266 7.83285 159.353 7.83285H168.878C169.787 7.83285 170.695 7.83285 171.588 7.71787C171.896 7.71664 172.2 7.657 172.48 7.54297C172.76 7.42893 173.009 7.26315 173.21 7.05675C173.335 6.92776 173.429 6.77787 173.487 6.61603C173.544 6.45418 173.565 6.28369 173.547 6.1147C173.528 5.94572 173.472 5.7817 173.381 5.63243C173.29 5.48316 173.165 5.35168 173.016 5.24584C172.478 4.86458 171.805 4.6658 171.117 4.68532C166.704 4.68532 162.274 4.68532 157.861 4.68532C156.092 4.68532 155.427 5.33207 155.427 6.91302C155.427 11.3301 155.427 15.7472 155.427 20.1643C155.427 21.6015 154.94 22.0039 153.35 22.0039C150.656 22.0039 150.462 21.8458 150.462 19.46C150.451 16.6718 150.451 13.8836 150.462 11.0954Z" fill="#EB202C"/>
<path d="M11.4878 21.6877H1.96325C0.567837 21.6877 0.0810707 21.2422 0.0810707 20.0062C0.0810707 19.5606 0.0810707 19.1007 0.0810707 18.6552C0.059825 18.4782 0.0841137 18.2992 0.152115 18.1318C0.220117 17.9643 0.330064 17.8126 0.473704 17.6881C0.617345 17.5637 0.790942 17.4696 0.981478 17.4131C1.17201 17.3566 1.37454 17.339 1.57384 17.3617C2.41758 17.3617 3.19642 17.3617 4.12129 17.3617H18.0592C18.7966 17.3582 19.5332 17.3198 20.2659 17.2467C21.11 17.247 21.921 16.9561 22.5269 16.4355C23.1327 15.915 23.4858 15.2058 23.5111 14.4585C23.3627 13.7391 22.9337 13.0888 22.299 12.6212C21.6643 12.1536 20.8643 11.8984 20.0388 11.9002C15.8201 11.699 11.6014 11.9002 7.36644 11.7996C6.62838 11.8276 5.88901 11.7891 5.15973 11.6846C3.56766 11.3516 2.16929 10.5119 1.23061 9.32523C0.291931 8.13853 -0.121581 6.68761 0.0687409 5.24846C0.259063 3.8093 1.03994 2.48232 2.26283 1.51989C3.48573 0.557469 5.06532 0.026751 6.70118 0.0286918H26.594C28.2166 0.0286918 28.5735 0.301767 28.5735 1.78211C28.5735 4.31164 28.5735 4.35475 25.7016 4.35475H8.90789C8.19984 4.34546 7.49271 4.40328 6.79854 4.52722C6.44197 4.56577 6.10993 4.70805 5.85446 4.93173C5.59899 5.15542 5.43454 5.44787 5.38689 5.76324C5.33107 6.06801 5.40016 6.38042 5.58168 6.644C5.76321 6.90759 6.04519 7.10497 6.37667 7.20047C7.22243 7.49499 8.13056 7.62252 9.03769 7.57415H20.5093C22.1525 7.46267 23.7904 7.84245 25.1611 8.65276C26.5319 9.46307 27.5563 10.6571 28.0705 12.0439C28.6884 13.5009 28.7634 15.0948 28.2846 16.5922C27.8057 18.0897 26.7982 19.412 25.4095 20.3655C24.0846 21.2431 22.4719 21.7125 20.8176 21.7021C17.7185 21.7021 14.6031 21.6877 11.4878 21.6877Z" fill="#0D5093"/>
<path d="M195.991 0.287454C197.55 0.249067 199.11 0.282647 200.664 0.38806C203.081 0.645157 205.343 1.57359 207.127 3.04017C208.911 4.50674 210.125 6.43611 210.594 8.55152C212.217 15.6514 207.463 20.6099 201.362 21.774C200.729 21.9079 200.082 21.9802 199.431 21.9896C196.429 21.9896 193.428 22.1477 190.426 21.8746C188.159 21.573 186.036 20.7019 184.311 19.3645C182.585 18.0272 181.329 16.2797 180.69 14.3292C180.185 12.7824 180.058 11.1579 180.318 9.56413C180.578 7.97041 181.22 6.44428 182.199 5.0878C183.258 3.62183 184.717 2.41605 186.442 1.582C188.166 0.747964 190.1 0.312604 192.065 0.316199C193.298 0.25871 194.515 0.287454 195.991 0.287454ZM195.553 17.6204C196.316 17.6204 197.078 17.6204 197.841 17.6204C199.174 17.6244 200.493 17.3693 201.703 16.8731C203.086 16.2567 204.218 15.273 204.939 14.0594C205.66 12.8457 205.936 11.4628 205.727 10.1037C205.378 8.76785 204.591 7.55309 203.465 6.61207C202.339 5.67105 200.925 5.04575 199.399 4.81473C197.089 4.63615 194.768 4.60733 192.454 4.72849C191.517 4.75149 190.596 4.94216 189.744 5.28901C188.336 5.85996 187.156 6.79655 186.363 7.97466C185.569 9.15277 185.197 10.5168 185.299 11.8859C185.581 13.2478 186.316 14.5041 187.408 15.4947C188.501 16.4854 189.901 17.1653 191.432 17.448C192.799 17.5974 194.176 17.655 195.553 17.6204Z" fill="#EB202C"/>
<path d="M120.265 11.081C120.265 8.07242 120.265 5.05903 120.265 2.04084C120.265 0.689849 120.72 0.287423 122.245 0.287423C128.897 0.287423 135.566 0.287423 142.219 0.287423C143.582 0.216431 144.932 0.551398 146.056 1.23899C147.179 1.92658 148.01 2.92726 148.417 4.08171C148.875 5.18643 148.965 6.38431 148.678 7.53321C148.39 8.68212 147.737 9.73385 146.794 10.5636C145.419 11.636 143.627 12.1926 141.797 12.1158H129.206C127.94 12.1158 127.583 11.7278 127.502 10.6786C127.502 10.233 127.502 9.77314 127.502 9.3276C127.502 8.27842 127.973 7.89037 129.125 7.89037H138.568C139.477 7.89037 140.385 7.89037 141.278 7.77539C141.822 7.76857 142.345 7.59022 142.754 7.27236C142.927 7.14251 143.062 6.97857 143.15 6.79376C143.238 6.60894 143.275 6.40843 143.26 6.20841C143.244 6.00838 143.175 5.81445 143.059 5.64226C142.943 5.47006 142.783 5.32443 142.592 5.21712C142.071 4.90507 141.452 4.74435 140.823 4.75721C136.426 4.75721 132.045 4.75721 127.648 4.75721C125.815 4.75721 125.182 5.36085 125.182 7.02803C125.182 11.3972 125.182 15.7664 125.182 20.1356C125.182 21.6734 124.727 22.0758 122.959 22.0902C120.379 22.0902 120.168 21.9033 120.168 19.6038C120.233 16.7389 120.265 13.898 120.265 11.081Z" fill="#EB202C"/>
<path d="M43.1929 0.0287981H44.5559C44.9971 0.0112706 45.4344 0.109714 45.8126 0.311744C46.1908 0.513774 46.4931 0.810368 46.6815 1.16421C50.1862 7.43053 53.6856 13.7064 57.1796 19.9919C57.8124 21.1273 57.358 21.6878 55.9139 21.6878C55.4109 21.6878 54.8917 21.6878 54.3887 21.6878C53.7513 21.7517 53.1083 21.6214 52.5656 21.3184C52.0229 21.0154 51.613 20.5577 51.4032 20.0207C49.2614 16.0108 47.006 12.044 44.7182 8.09165C44.3774 7.48802 44.0854 6.7694 43.0956 6.75503C42.1058 6.74066 41.8138 7.44491 41.473 8.03417C39.4448 11.5985 37.4653 15.2203 35.4695 18.7559C35.145 19.3452 34.8205 19.9344 34.4797 20.5093C34.2856 20.8746 33.9744 21.1812 33.5848 21.3908C33.1953 21.6004 32.7447 21.7037 32.2892 21.6878H30.4882C28.8656 21.6878 28.4275 21.1704 29.1414 19.8194C30.0014 18.2097 30.91 16.6144 31.8024 15.0191C34.285 10.5924 36.8162 6.19451 39.2339 1.7391C39.4584 1.15889 39.9072 0.66762 40.501 0.352046C41.0948 0.0364732 41.7954 -0.0831062 42.479 0.0144283C42.7165 0.0311493 42.9549 0.0359453 43.1929 0.0287981Z" fill="#0D5093"/>
<path d="M78.3056 0.0286865H85.9479C87.3757 0.0286865 87.7814 0.387995 87.7976 1.62401C87.7976 2.05518 87.7976 2.47198 87.7976 2.90314C87.7976 3.96669 87.2784 4.34037 86.0128 4.34037C82.5892 4.34037 79.1493 4.34037 75.7257 4.34037C74.1016 4.30511 72.4766 4.34829 70.8579 4.46972C69.2594 4.69521 67.7816 5.36078 66.6341 6.37204C65.4866 7.38329 64.7277 8.68889 64.465 10.1037C64.108 13.0787 64.3838 16.0682 64.3027 19.0576C64.3027 19.4888 64.3027 19.9056 64.3027 20.3367C64.3169 20.5143 64.2882 20.6924 64.2184 20.8594C64.1487 21.0263 64.0395 21.1781 63.8982 21.3046C63.7569 21.4311 63.5867 21.5295 63.399 21.5931C63.2113 21.6567 63.0105 21.684 62.8099 21.6734C59.9704 21.6734 59.3052 21.889 59.4025 18.9283C59.4999 15.9676 59.4025 12.9494 59.4025 9.97431C59.5226 7.32603 60.7837 4.81914 62.9265 2.96923C65.0693 1.11931 67.9309 0.0669893 70.9228 0.0286865H78.3218H78.3056Z" fill="#0D5093"/>
<path d="M103.764 17.3617H115.998C117.621 17.3617 117.945 17.7066 117.962 19.1007C117.962 21.5871 117.848 21.7021 115.073 21.7021H91.6271C89.9072 21.7021 89.4854 21.3284 89.4854 19.7906C89.4854 17.4767 89.5989 17.3617 92.2113 17.3617H103.764Z" fill="#0D5093"/>
<path d="M103.748 0.0286865H116.063C117.523 0.0286865 117.913 0.373624 117.945 1.6815C117.945 4.21103 117.848 4.35475 114.976 4.35475H91.4649C89.9559 4.35475 89.4854 3.93795 89.4854 2.6157C89.4854 2.24202 89.4854 1.86834 89.4854 1.48029C89.4854 0.431114 89.9884 0.0430619 91.1079 0.0430619L103.748 0.0286865Z" fill="#0D5093"/>
<path d="M103.748 7.55978H116.079C117.556 7.55978 117.962 7.90471 117.962 9.19822C117.962 9.70125 117.962 10.2043 117.962 10.6354C117.967 10.7877 117.936 10.9393 117.87 11.0799C117.803 11.2206 117.704 11.3469 117.578 11.4505C117.452 11.5541 117.302 11.6325 117.138 11.6803C116.975 11.7281 116.802 11.7443 116.631 11.7277H91.4C89.8748 11.7277 89.4854 11.3828 89.4854 10.0462C89.4854 9.64376 89.4854 9.24133 89.4854 8.83891C89.4854 7.87596 89.9721 7.48792 91.1079 7.48792L103.748 7.55978Z" fill="#0D5093"/>
<path d="M78.1432 7.55981H86.1425C87.3757 7.55981 87.7651 7.96224 87.7651 9.0689C87.7651 9.50007 87.7651 9.91687 87.7651 10.348C87.7651 11.426 87.3108 11.7853 86.1425 11.7853H70.2412C68.9756 11.7853 68.6187 11.4116 68.6187 10.348C68.6187 9.87375 68.6187 9.39947 68.6187 8.91081C68.6187 7.99098 69.073 7.58856 70.1439 7.58856H78.2568L78.1432 7.55981Z" fill="#0D5093"/>
</g>
<defs>
<clipPath id="clip0_726_629">
<rect width="50" height="10" fill="white"/>
</clipPath>
</defs>
</svg>
